<mxfile host="app.diagrams.net" modified="2020-09-29T18:15:33.516Z" agent="5.0 (Windows NT 10.0; Win64; x64) AppleWebKit/537.36 (KHTML, like Gecko) Chrome/85.0.4183.121 Safari/537.36" etag="QxI-nIGCmafq6mBDLA3L" version="13.7.6" type="github">
  <diagram id="6jNcFZaKQLQX2O2uPCwZ" name="Page-1">
    <mxGraphModel dx="1038" dy="580" grid="1" gridSize="10" guides="1" tooltips="1" connect="1" arrows="1" fold="1" page="1" pageScale="1" pageWidth="850" pageHeight="1100" math="0" shadow="0">
      <root>
        <mxCell id="0" />
        <mxCell id="1" parent="0" />
        <mxCell id="8lSmy9ZzQzsi7pe0QAcy-1" value="" style="ellipse;whiteSpace=wrap;html=1;aspect=fixed;" vertex="1" parent="1">
          <mxGeometry x="545" y="185" width="100" height="100" as="geometry" />
        </mxCell>
        <mxCell id="8lSmy9ZzQzsi7pe0QAcy-2" value="" style="rounded=0;whiteSpace=wrap;html=1;" vertex="1" parent="1">
          <mxGeometry x="170" y="185" width="120" height="60" as="geometry" />
        </mxCell>
        <mxCell id="8lSmy9ZzQzsi7pe0QAcy-3" value="User" style="text;html=1;strokeColor=none;fillColor=none;align=center;verticalAlign=middle;whiteSpace=wrap;rounded=0;" vertex="1" parent="1">
          <mxGeometry x="210" y="205" width="40" height="20" as="geometry" />
        </mxCell>
        <mxCell id="8lSmy9ZzQzsi7pe0QAcy-4" value="Path Finding Visualizer" style="text;html=1;strokeColor=none;fillColor=none;align=center;verticalAlign=middle;whiteSpace=wrap;rounded=0;" vertex="1" parent="1">
          <mxGeometry x="560" y="220" width="70" height="30" as="geometry" />
        </mxCell>
        <mxCell id="8lSmy9ZzQzsi7pe0QAcy-11" value="" style="endArrow=classic;html=1;entryX=0.218;entryY=0.084;entryDx=0;entryDy=0;exitX=1;exitY=0;exitDx=0;exitDy=0;entryPerimeter=0;" edge="1" parent="1" source="8lSmy9ZzQzsi7pe0QAcy-2" target="8lSmy9ZzQzsi7pe0QAcy-1">
          <mxGeometry width="50" height="50" relative="1" as="geometry">
            <mxPoint x="240" y="195" as="sourcePoint" />
            <mxPoint x="605" y="195" as="targetPoint" />
            <Array as="points">
              <mxPoint x="420" y="150" />
            </Array>
          </mxGeometry>
        </mxCell>
        <mxCell id="8lSmy9ZzQzsi7pe0QAcy-14" value="" style="endArrow=classic;html=1;entryX=0.5;entryY=1;entryDx=0;entryDy=0;exitX=0.5;exitY=1;exitDx=0;exitDy=0;" edge="1" parent="1" source="8lSmy9ZzQzsi7pe0QAcy-1" target="8lSmy9ZzQzsi7pe0QAcy-2">
          <mxGeometry width="50" height="50" relative="1" as="geometry">
            <mxPoint x="535" y="290" as="sourcePoint" />
            <mxPoint x="280" y="285" as="targetPoint" />
            <Array as="points">
              <mxPoint x="410" y="390" />
            </Array>
          </mxGeometry>
        </mxCell>
        <mxCell id="8lSmy9ZzQzsi7pe0QAcy-15" value="Selects algorithm to visualize and draw maze(Hurdle)" style="text;html=1;strokeColor=none;fillColor=none;align=center;verticalAlign=middle;whiteSpace=wrap;rounded=0;" vertex="1" parent="1">
          <mxGeometry x="250" y="60" width="330" height="20" as="geometry" />
        </mxCell>
        <mxCell id="8lSmy9ZzQzsi7pe0QAcy-16" value="Shortest Path with visualization animation" style="text;html=1;strokeColor=none;fillColor=none;align=center;verticalAlign=middle;whiteSpace=wrap;rounded=0;" vertex="1" parent="1">
          <mxGeometry x="260" y="390" width="330" height="20" as="geometry" />
        </mxCell>
        <mxCell id="8lSmy9ZzQzsi7pe0QAcy-17" value="Compare two Algorithms" style="text;html=1;strokeColor=none;fillColor=none;align=center;verticalAlign=middle;whiteSpace=wrap;rounded=0;" vertex="1" parent="1">
          <mxGeometry x="250" y="120" width="330" height="20" as="geometry" />
        </mxCell>
        <mxCell id="8lSmy9ZzQzsi7pe0QAcy-21" value="" style="endArrow=classic;html=1;entryX=0.25;entryY=1;entryDx=0;entryDy=0;exitX=1;exitY=1;exitDx=0;exitDy=0;curved=1;" edge="1" parent="1" source="8lSmy9ZzQzsi7pe0QAcy-1" target="8lSmy9ZzQzsi7pe0QAcy-2">
          <mxGeometry width="50" height="50" relative="1" as="geometry">
            <mxPoint x="400" y="400" as="sourcePoint" />
            <mxPoint x="450" y="350" as="targetPoint" />
            <Array as="points">
              <mxPoint x="400" y="730" />
            </Array>
          </mxGeometry>
        </mxCell>
        <mxCell id="8lSmy9ZzQzsi7pe0QAcy-22" value="" style="endArrow=classic;html=1;entryX=0.5;entryY=0;entryDx=0;entryDy=0;exitX=0.75;exitY=0;exitDx=0;exitDy=0;curved=1;" edge="1" parent="1" source="8lSmy9ZzQzsi7pe0QAcy-2" target="8lSmy9ZzQzsi7pe0QAcy-1">
          <mxGeometry width="50" height="50" relative="1" as="geometry">
            <mxPoint x="400" y="320" as="sourcePoint" />
            <mxPoint x="450" y="270" as="targetPoint" />
            <Array as="points">
              <mxPoint x="400" />
            </Array>
          </mxGeometry>
        </mxCell>
        <mxCell id="8lSmy9ZzQzsi7pe0QAcy-24" value="List of Algorithms to visualize" style="text;html=1;strokeColor=none;fillColor=none;align=center;verticalAlign=middle;whiteSpace=wrap;rounded=0;" vertex="1" parent="1">
          <mxGeometry x="270" y="500" width="330" height="20" as="geometry" />
        </mxCell>
      </root>
    </mxGraphModel>
  </diagram>
</mxfile>
